<?xml version="1.0" encoding="UTF-8"?>
<svg width="1080px" height="1080px" viewBox="0 0 1080 1080" version="1.1" xmlns="http://www.w3.org/2000/svg" xmlns:xlink="http://www.w3.org/1999/xlink">
    <title>icon</title>
    <g id="icon" stroke="none" stroke-width="1" fill="none" fill-rule="evenodd">
        <rect id="Rectangle" fill="#DAF46B" x="40" y="40" width="1000" height="1000" rx="500"></rect>
        <g id="LQ-RS" transform="translate(267.86, 198.96)" fill="#255142" fill-rule="nonzero">
            <polygon id="Path" points="5.68434189e-14 315.04 5.68434189e-14 7.04 60.72 7.04 60.72 259.16 220 259.16 220 315.04"></polygon>
            <path d="M576.84,300.52 L533.72,343.64 L489.72,300.08 C463.906667,314.746667 434.426667,322.08 401.28,322.08 C352.586667,322.08 313.353333,307.34 283.58,277.86 C253.806667,248.38 238.92,209.44 238.92,161.04 C238.92,112.64 253.806667,73.7 283.58,44.22 C313.353333,14.74 352.586667,5.68434189e-14 401.28,5.68434189e-14 C449.973333,5.68434189e-14 489.133333,14.74 518.76,44.22 C548.386667,73.7 563.2,112.64 563.2,161.04 C563.2,198.586667 553.813333,231.146667 535.04,258.72 L576.84,300.52 Z M401.28,266.64 C431.2,266.64 455.4,256.886667 473.88,237.38 C492.36,217.873333 501.6,192.426667 501.6,161.04 C501.6,129.653333 492.36,104.206667 473.88,84.7 C455.4,65.1933333 431.2,55.44 401.28,55.44 C371.066667,55.44 346.72,65.1933333 328.24,84.7 C309.76,104.206667 300.52,129.653333 300.52,161.04 C300.52,192.426667 309.76,217.873333 328.24,237.38 C346.72,256.886667 371.066667,266.64 401.28,266.64 Z" id="Shape"></path>
            <path d="M202.62,675.04 L118.58,571.64 L65.34,571.64 L65.34,675.04 L4.62,675.04 L4.62,367.04 L151.14,367.04 C184.58,367.04 211.273333,376.5 231.22,395.42 C251.166667,414.34 261.14,439.2 261.14,470 C261.14,494.64 254.54,515.466667 241.34,532.48 C228.14,549.493333 209.66,561.08 185.9,567.24 L276.98,675.04 L202.62,675.04 Z M186.78,506.52 C196.166667,498.013333 200.86,485.986667 200.86,470.44 C200.86,454.893333 196.166667,442.793333 186.78,434.14 C177.393333,425.486667 164.193333,421.16 147.18,421.16 L64.9,421.16 L64.9,519.28 L147.18,519.28 C164.193333,519.28 177.393333,515.026667 186.78,506.52 Z" id="Shape"></path>
            <path d="M434.06,681.64 C382.726667,681.64 339.02,667.266667 302.94,638.52 L334.62,593.2 C361.9,615.493333 395.046667,626.64 434.06,626.64 C454.593333,626.64 470.873333,623.046667 482.9,615.86 C494.926667,608.673333 500.94,598.92 500.94,586.6 C500.94,574.866667 495.366667,565.773333 484.22,559.32 C473.073333,552.866667 455.326667,548.173333 430.98,545.24 C389.033333,540.253333 358.453333,530.353333 339.24,515.54 C320.026667,500.726667 310.42,479.533333 310.42,451.96 C310.42,424.973333 321.786667,402.973333 344.52,385.96 C367.253333,368.946667 396.806667,360.44 433.18,360.44 C476.593333,360.44 515.02,372.76 548.46,397.4 L518.54,440.52 C493.313333,422.04 465.446667,412.8 434.94,412.8 C415.873333,412.8 400.326667,416.393333 388.3,423.58 C376.273333,430.766667 370.26,439.933333 370.26,451.08 C370.26,462.226667 375.54,471.026667 386.1,477.48 C396.66,483.933333 413.966667,488.626667 438.02,491.56 C480.846667,497.426667 512.16,507.913333 531.96,523.02 C551.76,538.126667 561.66,559.026667 561.66,585.72 C561.66,614.466667 550,637.64 526.68,655.24 C503.36,672.84 472.486667,681.64 434.06,681.64 Z" id="Path"></path>
        </g>
    </g>
</svg>